<svg width="50" height="44" viewBox="0 0 50 44" fill="none" xmlns="http://www.w3.org/2000/svg">
<path fill-rule="evenodd" clip-rule="evenodd" d="M0 22C0 21.1712 0.329241 20.3764 0.915292 19.7903C1.50134 19.2043 2.2962 18.875 3.125 18.875L39.3313 18.875L25.9125 5.46252C25.6219 5.17197 25.3915 4.82703 25.2342 4.44741C25.077 4.06779 24.9961 3.66091 24.9961 3.25002C24.9961 2.83912 25.077 2.43224 25.2342 2.05262C25.3915 1.673 25.6219 1.32806 25.9125 1.03751C26.203 0.746965 26.548 0.516488 26.9276 0.359244C27.3072 0.201999 27.7141 0.121069 28.125 0.121069C28.5359 0.121069 28.9428 0.201999 29.3224 0.359244C29.702 0.516488 30.047 0.746965 30.3375 1.03751L49.0875 19.7875C49.3785 20.0778 49.6094 20.4227 49.767 20.8023C49.9245 21.182 50.0056 21.589 50.0056 22C50.0056 22.4111 49.9245 22.8181 49.767 23.1977C49.6094 23.5774 49.3785 23.9222 49.0875 24.2125L30.3375 42.9625C30.047 43.2531 29.702 43.4835 29.3224 43.6408C28.9428 43.798 28.5359 43.879 28.125 43.879C27.7141 43.879 27.3072 43.798 26.9276 43.6408C26.548 43.4835 26.203 43.2531 25.9125 42.9625C25.3257 42.3757 24.9961 41.5799 24.9961 40.75C24.9961 40.3391 25.077 39.9322 25.2342 39.5526C25.3915 39.173 25.6219 38.8281 25.9125 38.5375L39.3313 25.125L3.125 25.125C2.2962 25.125 1.50134 24.7958 0.915292 24.2097C0.329241 23.6237 0 22.8288 0 22Z" fill="#2F2105"/>
</svg>
